ffmpeg version N-55863-g9f38fac053-static https://johnvansickle.com/ffmpeg/  Copyright (c) 2000-2021 the FFmpeg developers
  built with gcc 8 (Debian 8.3.0-6)
  configuration: --enable-gpl --enable-version3 --enable-static --disable-debug --disable-ffplay --disable-indev=sndio --disable-outdev=sndio --cc=gcc --enable-fontconfig --enable-frei0r --enable-gnutls --enable-gmp --enable-libgme --enable-gray --enable-libaom --enable-libfribidi --enable-libass --enable-libvmaf --enable-libfreetype --enable-libmp3lame --enable-libopencore-amrnb --enable-libopencore-amrwb --enable-libopenjpeg --enable-librubberband --enable-libsoxr --enable-libspeex --enable-libsrt --enable-libvorbis --enable-libopus --enable-libtheora --enable-libvidstab --enable-libvo-amrwbenc --enable-libvpx --enable-libwebp --enable-libx264 --enable-libx265 --enable-libxml2 --enable-libdav1d --enable-libxvid --enable-libzvbi --enable-libzimg
  libavutil      56. 64.100 / 56. 64.100
  libavcodec     58.119.100 / 58.119.100
  libavformat    58. 65.101 / 58. 65.101
  libavdevice    58. 11.103 / 58. 11.103
  libavfilter     7.100.100 /  7.100.100
  libswscale      5.  8.100 /  5.  8.100
  libswresample   3.  8.100 /  3.  8.100
  libpostproc    55.  8.100 / 55.  8.100
Input #0, mov,mp4,m4a,3gp,3g2,mj2, from '/home/yiaapc5/public_html/f_data/data_userfiles/user_uploads/3232170153/v/1614475616.mp4':
  Metadata:
    major_brand     : mp42
    minor_version   : 0
    compatible_brands: isommp42
    creation_time   : 2019-04-04T07:47:27.000000Z
  Duration: 00:13:10.04, start: 0.000000, bitrate: 394 kb/s
    Stream #0:0(und): Video: h264 (Main) (avc1 / 0x31637661), yuv420p(tv, bt709), 1280x720 [SAR 1:1 DAR 16:9], 263 kb/s, 29.97 fps, 29.97 tbr, 30k tbn, 59.94 tbc (default)
    Metadata:
      creation_time   : 2019-04-04T07:47:27.000000Z
      handler_name    : ISO Media file produced by Google Inc. Created on: 04/04/2019.
      vendor_id       : [0][0][0][0]
    Stream #0:1(eng): Audio: aac (LC) (mp4a / 0x6134706D), 44100 Hz, stereo, fltp, 127 kb/s (default)
    Metadata:
      creation_time   : 2019-04-04T07:47:27.000000Z
      handler_name    : ISO Media file produced by Google Inc. Created on: 04/04/2019.
      vendor_id       : [0][0][0][0]
Codec AVOption rc_eq (Set rate control equation. When computing the expression, besides the standard functions defined in the section 'Expression Evaluation', the following functions are available: bits2qp(bits), qp2bits(qp). Also the following constants are available: iTex pTex tex mv fCode iCount mcVar var isI isP isB avgQP qComp avgIITex avgPITex avgPPTex avgBPTex avgTex.) specified for output file #0 (/home/yiaapc5/public_html/f_data/data_userfiles/user_media/3232170153/v/681a0b8abdc9b820c0a12da865a18a13.mob.nomob.mp4) has not been used for any stream. The most likely reason is either wrong type (e.g. a video option with no video streams) or that it is a private option of some encoder which was not actually used for any stream.
Stream mapping:
  Stream #0:0 -> #0:0 (h264 (native) -> h264 (libx264))
  Stream #0:1 -> #0:1 (aac (native) -> aac (native))
Press [q] to stop, [?] for help
[libx264 @ 0x5d41280] Application has requested 32 threads. Using a thread count greater than 16 is not recommended.
[libx264 @ 0x5d41280] using SAR=136/135
[libx264 @ 0x5d41280] frame MB size (30x17) > level limit (396)
[libx264 @ 0x5d41280] VBV bitrate (10000) > level limit (768)
[libx264 @ 0x5d41280] VBV buffer (10000) > level limit (2000)
[libx264 @ 0x5d41280] MB rate (15284) > level limit (11880)
[libx264 @ 0x5d41280] using cpu capabilities: MMX2 SSE2Fast SSSE3 SSE4.2 AVX
[libx264 @ 0x5d41280] profile Constrained Baseline, level 1.3, 4:2:0, 8-bit
[libx264 @ 0x5d41280] 264 - core 161 r3040 35417dc - H.264/MPEG-4 AVC codec - Copyleft 2003-2021 - http://www.videolan.org/x264.html - options: cabac=0 ref=1 deblock=1:0:0 analyse=0x1:0 me=hex subme=1 psy=1 psy_rd=1.00:0.00 mixed_ref=0 me_range=16 chroma_me=1 trellis=0 8x8dct=0 cqm=0 deadzone=21,11 fast_pskip=1 chroma_qp_offset=0 threads=32 lookahead_threads=2 sliced_threads=0 nr=0 decimate=1 interlaced=0 bluray_compat=0 constrained_intra=0 bframes=0 weightp=0 keyint=300 keyint_min=25 scenecut=40 intra_refresh=0 rc_lookahead=30 rc=abr mbtree=1 bitrate=395 ratetol=1.0 qcomp=0.60 qpmin=10 qpmax=51 qpstep=4 vbv_maxrate=10000 vbv_bufsize=10000 nal_hrd=none filler=0 ip_ratio=1.41 aq=1:1.00
Output #0, mp4, to '/home/yiaapc5/public_html/f_data/data_userfiles/user_media/3232170153/v/681a0b8abdc9b820c0a12da865a18a13.mob.nomob.mp4':
  Metadata:
    major_brand     : mp42
    minor_version   : 0
    compatible_brands: isommp42
    encoder         : Lavf58.65.101
    Stream #0:0(und): Video: h264 (avc1 / 0x31637661), yuv420p(tv, bt709, progressive), 480x272 [SAR 136:135 DAR 16:9], q=2-31, 395 kb/s, 29.97 fps, 30k tbn (default)
    Metadata:
      creation_time   : 2019-04-04T07:47:27.000000Z
      handler_name    : ISO Media file produced by Google Inc. Created on: 04/04/2019.
      vendor_id       : [0][0][0][0]
      encoder         : Lavc58.119.100 libx264
    Side data:
      cpb: bitrate max/min/avg: 10000000/0/395000 buffer size: 10000000 vbv_delay: N/A
    Stream #0:1(eng): Audio: aac (LC) (mp4a / 0x6134706D), 44100 Hz, stereo, fltp, 127 kb/s (default)
    Metadata:
      creation_time   : 2019-04-04T07:47:27.000000Z
      handler_name    : ISO Media file produced by Google Inc. Created on: 04/04/2019.
      vendor_id       : [0][0][0][0]
      encoder         : Lavc58.119.100 aac
frame=    1 fps=0.0 q=0.0 size=       0kB time=00:00:00.41 bitrate=   0.9kbits/s speed=9.42x    frame=  182 fps=0.0 q=27.0 size=       0kB time=00:00:06.52 bitrate=   0.1kbits/s speed=  12x    frame=  399 fps=382 q=25.0 size=     512kB time=00:00:13.49 bitrate= 310.9kbits/s speed=12.9x    frame=  614 fps=397 q=25.0 size=    1024kB time=00:00:20.59 bitrate= 407.3kbits/s speed=13.3x    frame=  831 fps=406 q=25.0 size=    1536kB time=00:00:27.88 bitrate= 451.2kbits/s speed=13.6x    frame= 1045 fps=410 q=25.0 size=    2048kB time=00:00:35.20 bitrate= 476.6kbits/s speed=13.8x    frame= 1266 fps=415 q=26.0 size=    2560kB time=00:00:42.28 bitrate= 496.0kbits/s speed=13.9x    frame= 1476 fps=416 q=28.0 size=    3072kB time=00:00:49.34 bitrate= 510.0kbits/s speed=13.9x    frame= 1686 fps=416 q=29.0 size=    3584kB time=00:00:56.23 bitrate= 522.1kbits/s speed=13.9x    frame= 1901 fps=418 q=29.0 size=    4096kB time=00:01:03.64 bitrate= 527.2kbits/s speed=  14x    frame= 2117 fps=419 q=30.0 size=    4608kB time=00:01:10.61 bitrate= 534.6kbits/s speed=  14x    frame= 2330 fps=420 q=30.0 size=    4864kB time=00:01:18.04 bitrate= 510.6kbits/s speed=14.1x    frame= 2534 fps=419 q=31.0 size=    5376kB time=00:01:24.93 bitrate= 518.5kbits/s speed=  14x    frame= 2749 fps=420 q=31.0 size=    5888kB time=00:01:31.97 bitrate= 524.4kbits/s speed=  14x    frame= 2944 fps=417 q=31.0 size=    6400kB time=00:01:38.47 bitrate= 532.4kbits/s speed=  14x    frame= 3130 fps=414 q=30.0 size=    6656kB time=00:01:44.51 bitrate= 521.7kbits/s speed=13.8x    frame= 3329 fps=413 q=29.0 size=    6912kB time=00:01:51.43 bitrate= 508.1kbits/s speed=13.8x    frame= 3508 fps=410 q=27.0 size=    7168kB time=00:01:57.07 bitrate= 501.6kbits/s speed=13.7x    frame= 3684 fps=407 q=26.0 size=    7424kB time=00:02:03.08 bitrate= 494.1kbits/s speed=13.6x    frame= 3877 fps=406 q=25.0 size=    7680kB time=00:02:09.59 bitrate= 485.5kbits/s speed=13.6x    frame= 4078 fps=405 q=24.0 size=    8192kB time=00:02:16.09 bitrate= 493.1kbits/s speed=13.5x    frame= 4263 fps=404 q=25.0 size=    8448kB time=00:02:22.59 bitrate= 485.3kbits/s speed=13.5x    frame= 4465 fps=404 q=26.0 size=    8960kB time=00:02:29.09 bitrate= 492.3kbits/s speed=13.5x    frame= 4666 fps=403 q=26.0 size=    9472kB time=00:02:36.06 bitrate= 497.2kbits/s speed=13.5x    frame= 4846 fps=402 q=27.0 size=    9984kB time=00:02:41.84 bitrate= 505.4kbits/s speed=13.4x    frame= 5048 fps=402 q=27.0 size=   10496kB time=00:02:48.60 bitrate= 510.0kbits/s speed=13.4x    frame= 5219 fps=399 q=28.0 size=   10752kB time=00:02:54.17 bitrate= 505.7kbits/s speed=13.3x    frame= 5402 fps=398 q=28.0 size=   11264kB time=00:03:00.21 bitrate= 512.0kbits/s speed=13.3x    frame= 5608 fps=399 q=28.0 size=   11776kB time=00:03:07.17 bitrate= 515.4kbits/s speed=13.3x    frame= 5809 fps=399 q=28.0 size=   12032kB time=00:03:14.14 bitrate= 507.7kbits/s speed=13.3x    frame= 6016 fps=399 q=28.0 size=   12544kB time=00:03:21.10 bitrate= 511.0kbits/s speed=13.3x    frame= 6223 fps=400 q=26.0 size=   12800kB time=00:03:27.84 bitrate= 504.5kbits/s speed=13.3x    frame= 6429 fps=400 q=25.0 size=   13056kB time=00:03:34.57 bitrate= 498.4kbits/s speed=13.3x    frame= 6630 fps=400 q=24.0 size=   13568kB time=00:03:41.54 bitrate= 501.7kbits/s speed=13.4x    frame= 6836 fps=400 q=24.0 size=   13824kB time=00:03:48.41 bitrate= 495.8kbits/s speed=13.4x    frame= 7041 fps=401 q=24.0 size=   14336kB time=00:03:55.00 bitrate= 499.7kbits/s speed=13.4x    frame= 7247 fps=401 q=25.0 size=   14848kB time=00:04:01.97 bitrate= 502.7kbits/s speed=13.4x    frame= 7463 fps=402 q=26.0 size=   15360kB time=00:04:09.05 bitrate= 505.2kbits/s speed=13.4x    frame= 7680 fps=403 q=25.0 size=   15872kB time=00:04:16.37 bitrate= 507.2kbits/s speed=13.4x    frame= 7886 fps=403 q=26.0 size=   16384kB time=00:04:23.33 bitrate= 509.7kbits/s speed=13.4x    frame= 8097 fps=403 q=26.0 size=   16896kB time=00:04:30.30 bitrate= 512.1kbits/s speed=13.5x    frame= 8293 fps=403 q=27.0 size=   17408kB time=00:04:36.80 bitrate= 515.2kbits/s speed=13.4x    frame= 8507 fps=404 q=27.0 size=   17920kB time=00:04:43.79 bitrate= 517.3kbits/s speed=13.5x    frame= 8714 fps=404 q=26.0 size=   18176kB time=00:04:50.76 bitrate= 512.1kbits/s speed=13.5x    frame= 8924 fps=404 q=26.0 size=   18688kB time=00:04:57.95 bitrate= 513.8kbits/s speed=13.5x    frame= 9124 fps=404 q=26.0 size=   18944kB time=00:05:04.66 bitrate= 509.4kbits/s speed=13.5x    frame= 9311 fps=403 q=26.0 size=   19456kB time=00:05:10.70 bitrate= 513.0kbits/s speed=13.5x    frame= 9481 fps=402 q=27.0 size=   19712kB time=00:05:16.30 bitrate= 510.5kbits/s speed=13.4x    frame= 9660 fps=401 q=27.0 size=   20224kB time=00:05:22.33 bitrate= 514.0kbits/s speed=13.4x    frame= 9835 fps=400 q=28.0 size=   20736kB time=00:05:28.35 bitrate= 517.3kbits/s speed=13.4x    frame=10010 fps=399 q=28.0 size=   21248kB time=00:05:33.99 bitrate= 521.2kbits/s speed=13.3x    frame=10181 fps=398 q=29.0 size=   21760kB time=00:05:39.96 bitrate= 524.3kbits/s speed=13.3x    frame=10352 fps=397 q=29.0 size=   22272kB time=00:05:45.53 bitrate= 528.0kbits/s speed=13.2x    frame=10543 fps=396 q=29.0 size=   22528kB time=00:05:52.03 bitrate= 524.2kbits/s speed=13.2x    frame=10753 fps=397 q=29.0 size=   23040kB time=00:05:59.00 bitrate= 525.7kbits/s speed=13.3x    frame=10956 fps=397 q=29.0 size=   23552kB time=00:06:05.50 bitrate= 527.9kbits/s speed=13.2x    frame=11156 fps=397 q=29.0 size=   23808kB time=00:06:12.47 bitrate= 523.6kbits/s speed=13.3x    frame=11364 fps=397 q=29.0 size=   24320kB time=00:06:19.43 bitrate= 525.1kbits/s speed=13.3x    frame=11536 fps=397 q=29.0 size=   24576kB time=00:06:25.01 bitrate= 522.9kbits/s speed=13.2x    frame=11734 fps=396 q=29.0 size=   25088kB time=00:06:31.53 bitrate= 524.9kbits/s speed=13.2x    frame=11930 fps=396 q=28.0 size=   25344kB time=00:06:38.03 bitrate= 521.6kbits/s speed=13.2x    frame=12086 fps=395 q=28.0 size=   25600kB time=00:06:43.58 bitrate= 519.6kbits/s speed=13.2x    frame=12243 fps=394 q=28.0 size=   26112kB time=00:06:48.69 bitrate= 523.4kbits/s speed=13.1x    frame=12416 fps=393 q=28.0 size=   26368kB time=00:06:54.26 bitrate= 521.4kbits/s speed=13.1x    frame=12588 fps=392 q=28.0 size=   26624kB time=00:07:00.30 bitrate= 518.9kbits/s speed=13.1x    frame=12774 fps=392 q=27.0 size=   26880kB time=00:07:06.34 bitrate= 516.5kbits/s speed=13.1x    frame=12946 fps=391 q=27.0 size=   27136kB time=00:07:12.37 bitrate= 514.1kbits/s speed=13.1x    frame=13154 fps=391 q=27.0 size=   27648kB time=00:07:19.15 bitrate= 515.7kbits/s speed=13.1x    frame=13347 fps=391 q=26.0 size=   27904kB time=00:07:25.38 bitrate= 513.2kbits/s speed=13.1x    frame=13540 fps=391 q=27.0 size=   28416kB time=00:07:31.88 bitrate= 515.1kbits/s speed=13.1x    frame=13708 fps=390 q=26.0 size=   28672kB time=00:07:37.45 bitrate= 513.5kbits/s speed=  13x    frame=13886 fps=390 q=27.0 size=   29184kB time=00:07:43.49 bitrate= 515.8kbits/s speed=  13x    frame=14074 fps=390 q=28.0 size=   29696kB time=00:07:49.78 bitrate= 517.8kbits/s speed=  13x    frame=14249 fps=389 q=28.0 size=   30208kB time=00:07:55.56 bitrate= 520.4kbits/s speed=  13x    frame=14421 fps=389 q=28.0 size=   30720kB time=00:08:01.34 bitrate= 522.8kbits/s speed=  13x    frame=14603 fps=388 q=29.0 size=   31232kB time=00:08:07.31 bitrate= 525.0kbits/s speed=  13x    frame=14761 fps=387 q=29.0 size=   31488kB time=00:08:12.75 bitrate= 523.5kbits/s speed=12.9x    frame=14940 fps=387 q=29.0 size=   32000kB time=00:08:18.78 bitrate= 525.6kbits/s speed=12.9x    frame=15120 fps=387 q=29.0 size=   32256kB time=00:08:24.82 bitrate= 523.4kbits/s speed=12.9x    frame=15324 fps=387 q=29.0 size=   32768kB time=00:08:31.32 bitrate= 525.0kbits/s speed=12.9x    frame=15524 fps=387 q=29.0 size=   33280kB time=00:08:38.29 bitrate= 526.0kbits/s speed=12.9x    frame=15726 fps=387 q=29.0 size=   33536kB time=00:08:44.79 bitrate= 523.5kbits/s speed=12.9x    frame=15916 fps=387 q=29.0 size=   34048kB time=00:08:51.29 bitrate= 525.0kbits/s speed=12.9x    frame=16120 fps=387 q=28.0 size=   34304kB time=00:08:58.09 bitrate= 522.2kbits/s speed=12.9x    frame=16313 fps=387 q=28.0 size=   34560kB time=00:09:04.71 bitrate= 519.7kbits/s speed=12.9x    frame=16509 fps=387 q=28.0 size=   35072kB time=00:09:10.82 bitrate= 521.6kbits/s speed=12.9x    frame=16704 fps=387 q=28.0 size=   35328kB time=00:09:17.76 bitrate= 518.9kbits/s speed=12.9x    frame=16915 fps=388 q=27.0 size=   35840kB time=00:09:24.73 bitrate= 519.9kbits/s speed=12.9x    frame=17136 fps=388 q=27.0 size=   36096kB time=00:09:31.72 bitrate= 517.2kbits/s speed=  13x    frame=17350 fps=389 q=27.0 size=   36608kB time=00:09:39.12 bitrate= 517.8kbits/s speed=  13x    frame=17559 fps=389 q=27.0 size=   37120kB time=00:09:46.09 bitrate= 518.8kbits/s speed=  13x    frame=17774 fps=390 q=27.0 size=   37376kB time=00:09:53.40 bitrate= 516.0kbits/s speed=  13x    frame=17984 fps=390 q=26.0 size=   37632kB time=00:10:00.07 bitrate= 513.7kbits/s speed=  13x    frame=18197 fps=390 q=24.0 size=   37888kB time=00:10:07.45 bitrate= 510.9kbits/s speed=  13x    frame=18415 fps=391 q=24.0 size=   38144kB time=00:10:14.53 bitrate= 508.5kbits/s speed=  13x    frame=18632 fps=391 q=22.0 size=   38400kB time=00:10:21.85 bitrate= 505.9kbits/s speed=13.1x    frame=18846 fps=392 q=22.0 size=   38912kB time=00:10:29.12 bitrate= 506.7kbits/s speed=13.1x    frame=19059 fps=392 q=21.0 size=   39168kB time=00:10:36.24 bitrate= 504.3kbits/s speed=13.1x    frame=19271 fps=392 q=22.0 size=   39680kB time=00:10:43.21 bitrate= 505.4kbits/s speed=13.1x    frame=19487 fps=393 q=21.0 size=   39936kB time=00:10:50.22 bitrate= 503.1kbits/s speed=13.1x    frame=19695 fps=393 q=21.0 size=   40192kB time=00:10:57.14 bitrate= 501.0kbits/s speed=13.1x    frame=19900 fps=393 q=21.0 size=   40448kB time=00:11:04.11 bitrate= 498.9kbits/s speed=13.1x    frame=20114 fps=393 q=21.0 size=   40960kB time=00:11:11.10 bitrate= 500.0kbits/s speed=13.1x    frame=20324 fps=394 q=21.0 size=   41216kB time=00:11:18.51 bitrate= 497.6kbits/s speed=13.1x    frame=20531 fps=394 q=21.0 size=   41728kB time=00:11:25.12 bitrate= 498.9kbits/s speed=13.1x    frame=20738 fps=394 q=21.0 size=   42240kB time=00:11:31.97 bitrate= 500.1kbits/s speed=13.1x    frame=20906 fps=393 q=20.0 size=   42496kB time=00:11:37.66 bitrate= 499.0kbits/s speed=13.1x    frame=21058 fps=393 q=20.0 size=   42496kB time=00:11:42.65 bitrate= 495.4kbits/s speed=13.1x    frame=21207 fps=392 q=20.0 size=   43008kB time=00:11:47.76 bitrate= 497.8kbits/s speed=13.1x    frame=21365 fps=391 q=20.0 size=   43264kB time=00:11:53.31 bitrate= 496.9kbits/s speed=13.1x    frame=21440 fps=389 q=20.0 size=   43264kB time=00:11:55.66 bitrate= 495.2kbits/s speed=  13x    frame=21580 fps=388 q=20.0 size=   43776kB time=00:12:00.30 bitrate= 497.9kbits/s speed=12.9x    frame=21769 fps=388 q=20.0 size=   44544kB time=00:12:06.34 bitrate= 502.4kbits/s speed=12.9x    frame=21962 fps=388 q=22.0 size=   45568kB time=00:12:12.84 bitrate= 509.4kbits/s speed=12.9x    frame=22174 fps=388 q=24.0 size=   46336kB time=00:12:19.99 bitrate= 513.0kbits/s speed=12.9x    frame=22382 fps=388 q=25.0 size=   46848kB time=00:12:27.24 bitrate= 513.6kbits/s speed=  13x    frame=22598 fps=389 q=25.0 size=   47360kB time=00:12:34.20 bitrate= 514.4kbits/s speed=  13x    frame=22810 fps=389 q=25.0 size=   47872kB time=00:12:41.17 bitrate= 515.2kbits/s speed=  13x    frame=23027 fps=389 q=25.0 size=   48384kB time=00:12:48.60 bitrate= 515.7kbits/s speed=  13x    frame=23245 fps=390 q=25.0 size=   48896kB time=00:12:55.56 bitrate= 516.5kbits/s speed=  13x    frame=23447 fps=390 q=25.0 size=   49408kB time=00:13:02.53 bitrate= 517.2kbits/s speed=  13x    frame=23664 fps=390 q=25.0 size=   49664kB time=00:13:09.96 bitrate= 515.0kbits/s speed=  13x    frame=23677 fps=390 q=-1.0 Lsize=   50726kB time=00:13:10.01 bitrate= 526.0kbits/s speed=  13x    
video:37791kB audio:12281kB subtitle:0kB other streams:0kB global headers:0kB muxing overhead: 1.307490%
[libx264 @ 0x5d41280] frame I:80    Avg QP:15.47  size: 28446
[libx264 @ 0x5d41280] frame P:23597 Avg QP:19.12  size:  1543
[libx264 @ 0x5d41280] mb I  I16..4: 21.9%  0.0% 78.1%
[libx264 @ 0x5d41280] mb P  I16..4:  0.3%  0.0%  0.0%  P16..4: 37.8%  0.0%  0.0%  0.0%  0.0%    skip:61.9%
[libx264 @ 0x5d41280] final ratefactor: 20.32
[libx264 @ 0x5d41280] coded y,uvDC,uvAC intra: 55.5% 45.7% 39.0% inter: 15.6% 7.8% 1.6%
[libx264 @ 0x5d41280] i16 v,h,dc,p: 42% 41% 13%  4%
[libx264 @ 0x5d41280] i4 v,h,dc,ddl,ddr,vr,hd,vl,hu: 19% 22% 10%  7%  8%  7%  9%  8% 11%
[libx264 @ 0x5d41280] i8c dc,h,v,p: 58% 24% 12%  6%
[libx264 @ 0x5d41280] kb/s:391.86
[aac @ 0x5d51640] Qavg: 294.636
